<svg width="90" height="90" viewBox="0 0 90 90" fill="none" xmlns="http://www.w3.org/2000/svg">
   <path
      d="M90 45C90 69.8528 69.8528 90 45 90C20.1472 90 0 69.8528 0 45C0 20.1472 20.1472 0 45 0C69.8528 0 90 20.1472 90 45ZM11.25 45C11.25 63.6396 26.3604 78.75 45 78.75C63.6396 78.75 78.75 63.6396 78.75 45C78.75 26.3604 63.6396 11.25 45 11.25C26.3604 11.25 11.25 26.3604 11.25 45Z"
      fill="white"
      />
   <g style="mix-blend-mode:multiply">
      <path
         fill="#00ECD2"
         d="M84.375 45C87.4816 45 90.0362 42.472 89.6489 39.3896C89.1486 35.4078 88.1168 31.5024 86.5746 27.7792C84.3131 22.3196 80.9984 17.3588 76.8198 13.1802C72.6412 9.00156 67.6804 5.68688 62.2208 3.42542C58.4976 1.88324 54.5922 0.851444 50.6104 0.351108C47.528 -0.036212 45 2.5184 45 5.625C45 8.7316 47.5355 11.2023 50.599 11.7177C53.1034 12.139 55.5582 12.8426 57.9156 13.8191C62.0103 15.5152 65.7309 18.0012 68.8649 21.1351C71.9988 24.2691 74.4848 27.9897 76.1809 32.0844C77.1574 34.4418 77.861 36.8966 78.2823 39.401C78.7977 42.4645 81.2684 45 84.375 45Z"
         >
         <animateTransform
            attributeName="transform"
            attributeType="XML"
            type="rotate"
            dur="0.75s"
            from="0 45 45"
            to="360 45 45"
            repeatCount="indefinite"
            />
      </path>
   </g>
   <path
      d="M34.1317 43.1558L34.7419 36.9995C34.7419 36.9089 34.8645 36.8157 34.9551 36.8157H38.0333C39.6483 36.8157 41.1114 37.6686 41.1114 39.6194C41.1114 42.1192 38.7342 43.3372 36.8447 43.3372H34.2836C34.1611 43.3372 34.1317 43.2759 34.1317 43.1534V43.1558ZM29.4998 32.1863L27 56.1988C27 56.3213 27.0294 56.3826 27.1519 56.3826H32.6073C32.698 56.3826 32.8205 56.2919 32.8205 56.1988L33.6734 47.6971C33.6734 47.6064 33.7641 47.5133 33.8866 47.5133C37.2074 47.8784 39.6778 58.6667 51.9266 58.6667C58.4799 58.6667 64.847 55.1621 64.847 47.7878C64.847 41.8765 58.8427 39.4062 54.669 40.9306C54.5171 40.9918 54.4264 40.9011 54.4558 40.7786L55.0955 36.9701C55.1249 36.8795 55.218 36.8182 55.3087 36.8182H64.2686C64.3593 36.8182 64.4524 36.7569 64.4818 36.6662L65.1828 32.1863C65.2122 32.0637 65.1215 32.0025 64.999 32.0025H50.6449C50.5542 32.0025 50.4611 32.0637 50.4317 32.1544L48.1157 46.4472C48.0863 46.5697 48.177 46.631 48.2995 46.631H52.4437C52.5344 46.631 52.6275 46.6016 52.6864 46.5085C54.3627 44.1925 58.9946 44.8934 58.9946 48.4274C58.9946 51.5668 56.3747 53.3951 52.0149 53.3951C48.3583 53.3951 44.8832 51.6894 41.7437 47.3295C41.6531 47.2069 41.6825 47.1163 41.805 47.055C44.9738 45.5919 46.7114 42.575 46.7114 39.4356C46.7114 35.0463 43.3588 32 39.4278 32H29.713C29.6223 32 29.4998 32.0907 29.4998 32.1838V32.1863Z"
      fill="#212938"
      />
</svg>
